<svg width="113" height="160" viewBox="0 0 113 160" fill="none" xmlns="http://www.w3.org/2000/svg">
<path d="M41.3285 14.592C48.5857 14.287 56.206 19.3703 59.9453 27.719C63.6845 36.0678 62.4028 45.1378 57.3431 50.3493C50.086 50.6541 42.4654 45.5711 38.7263 37.2223C34.9873 28.8736 36.2688 19.8034 41.3285 14.592Z" fill="url(#paint0_linear_3_10)"/>
<path d="M82.158 16.8763C85.8217 23.1482 84.8925 32.2612 79.262 39.4709C73.6312 46.6806 65.0148 49.7896 58.0421 47.7546C54.3786 41.4826 55.3075 32.3697 60.9382 25.16C66.569 17.9506 75.1854 14.8413 82.158 16.8763Z" fill="url(#paint1_linear_3_10)"/>
<circle cx="63" cy="97" r="50" fill="url(#paint2_linear_3_10)"/>
<g filter="url(#filter0_d_3_10)">
<ellipse cx="50.5" cy="98" rx="41.5" ry="50" fill="url(#paint3_linear_3_10)"/>
</g>
<defs>
<filter id="filter0_d_3_10" x="0" y="40" width="103" height="120" filterUnits="userSpaceOnUse" color-interpolation-filters="sRGB">
<feFlood flood-opacity="0" result="BackgroundImageFix"/>
<feColorMatrix in="SourceAlpha" type="matrix" values="0 0 0 0 0 0 0 0 0 0 0 0 0 0 0 0 0 0 127 0" result="hardAlpha"/>
<feOffset dx="1" dy="2"/>
<feGaussianBlur stdDeviation="5"/>
<feComposite in2="hardAlpha" operator="out"/>
<feColorMatrix type="matrix" values="0 0 0 0 0 0 0 0 0 0 0 0 0 0 0 0 0 0 0.25 0"/>
<feBlend mode="normal" in2="BackgroundImageFix" result="effect1_dropShadow_3_10"/>
<feBlend mode="normal" in="SourceGraphic" in2="effect1_dropShadow_3_10" result="shape"/>
</filter>
<linearGradient id="paint0_linear_3_10" x1="59.8518" y1="49.0713" x2="51.1709" y2="21.1923" gradientUnits="userSpaceOnUse">
<stop stop-color="#2C6B11"/>
<stop offset="1" stop-color="#56D122"/>
</linearGradient>
<linearGradient id="paint1_linear_3_10" x1="60.345" y1="49.3744" x2="80.9272" y2="28.6628" gradientUnits="userSpaceOnUse">
<stop stop-color="#2C6B11"/>
<stop offset="1" stop-color="#56D122"/>
</linearGradient>
<linearGradient id="paint2_linear_3_10" x1="101" y1="60" x2="63" y2="128" gradientUnits="userSpaceOnUse">
<stop stop-color="#FBAF6C"/>
<stop offset="1" stop-color="#EFC199"/>
</linearGradient>
<linearGradient id="paint3_linear_3_10" x1="81.21" y1="76" x2="40.4748" y2="141.793" gradientUnits="userSpaceOnUse">
<stop stop-color="#FBAF6C"/>
<stop offset="1" stop-color="#EFC199"/>
</linearGradient>
</defs>
</svg>
